<svg xmlns="http://www.w3.org/2000/svg" data-name="Layer 1" viewBox="0 0 512 512" id="shopping"><circle cx="202.45" cy="470" r="34.5" fill="#8b8893"></circle><path fill="#787681" d="M202.45 435.5a34.36 34.36 0 0 0-15 3.424 34.512 34.512 0 0 1 0 62.152 34.503 34.503 0 1 0 15-65.576Z"></path><circle cx="367.45" cy="470" r="34.5" fill="#8b8893"></circle><path fill="#787681" d="M367.45 435.5a34.36 34.36 0 0 0-15 3.424 34.512 34.512 0 0 1 0 62.152 34.503 34.503 0 1 0 15-65.576Z"></path><path fill="#eb304a" d="M448.51 214.367h-165l27.683-145.798a15 15 0 0 1 14.736-12.202h80.16a15 15 0 0 1 14.737 12.202Z"></path><path fill="#e4222e" d="M420.826 68.569a15 15 0 0 0-14.737-12.202h-45a15 15 0 0 1 14.737 12.202l27.683 145.798h45Z"></path><path fill="#fed947" d="M313.51 214.367h-165l27.683-145.798a15 15 0 0 1 14.736-12.202h80.16a15 15 0 0 1 14.737 12.202Z"></path><path fill="#fed030" d="M285.826 68.569a15 15 0 0 0-14.737-12.202h-45a15 15 0 0 1 14.737 12.202l27.683 145.798h45Z"></path><path fill="#227fc0" d="M314.529 360.531h94.521a30 30 0 0 0 27.924-19.035l51.44-131a30 30 0 0 0-27.924-40.965H106.5l45 196"></path><path fill="#2370b5" d="m151.185 364.161.315 1.37 163.029-5h-45l-118.344 3.63zM460.49 169.531h-45a30 30 0 0 1 27.924 40.965l-51.44 131a30 30 0 0 1-27.924 19.035h45a30 30 0 0 0 27.925-19.035l51.44-131a30 30 0 0 0-27.925-40.965Z"></path><path fill="#8b8893" d="M106.493 177.033a7.503 7.503 0 0 1-7.305-5.836l-8.877-38.971a22.379 22.379 0 0 0-14.478-16.23L5.013 91.106a7.5 7.5 0 0 1 4.973-14.152l70.82 24.888a37.303 37.303 0 0 1 24.13 27.052l8.876 38.97a7.508 7.508 0 0 1-7.319 9.168Z"></path><path fill="#3c3b41" d="M173.984 368.031H409.05a37.286 37.286 0 0 0 34.906-23.794l51.44-131a37.5 37.5 0 0 0-34.906-51.206h-14.28l-18.013-94.865A22.531 22.531 0 0 0 406.09 48.87h-.905v-9.694a39.175 39.175 0 1 0-78.351 0v9.694h-.904a22.532 22.532 0 0 0-22.108 18.301L298.51 95.15l-5.313-27.983A22.531 22.531 0 0 0 271.09 48.87h-.905v-9.694a39.175 39.175 0 1 0-78.351 0v9.694h-.904a22.532 22.532 0 0 0-22.108 18.301l-18.012 94.86h-38.326l-7.548-33.136a37.303 37.303 0 0 0-24.13-27.052L9.986 76.955a7.5 7.5 0 0 0-4.972 14.153l70.819 24.887a22.379 22.379 0 0 1 14.478 16.23l8.876 38.972.002.006.001.007 44.455 193.625a44.951 44.951 0 0 0 26.8 78.013 41.998 41.998 0 1 0 64.143.152h100.724a42 42 0 1 0 64.276 0h46.746a7.5 7.5 0 0 0 0-15h-272.35a29.984 29.984 0 1 1 0-59.969Zm193.466 74.97a27 27 0 1 1-27 27 27.03 27.03 0 0 1 27-27Zm-165 0a27 27 0 1 1-27 27 27.03 27.03 0 0 1 27-27ZM341.834 39.175a24.175 24.175 0 1 1 48.35 0v9.694h-48.35Zm-23.276 30.799a7.516 7.516 0 0 1 7.372-6.105h.904v22.496a7.5 7.5 0 0 0 15 0V63.87h48.35v22.496a7.5 7.5 0 0 0 15 0V63.87h.906a7.515 7.515 0 0 1 7.372 6.1l17.48 92.061H311.21l-5.065-26.676ZM206.834 39.176a24.175 24.175 0 1 1 48.35 0v9.694h-48.35Zm-23.276 30.799a7.516 7.516 0 0 1 7.372-6.105h.904v22.496a7.5 7.5 0 0 0 15 0V63.87h48.35v22.496a7.5 7.5 0 0 0 15 0V63.87h.906a7.515 7.515 0 0 1 7.372 6.099l12.702 66.897.019.098 4.76 25.067H166.076ZM115.917 177.03H460.49a22.5 22.5 0 0 1 20.943 30.724l-51.44 131a22.37 22.37 0 0 1-20.943 14.276H173.984a44.73 44.73 0 0 0-16.9 3.307Z"></path></svg>